<?xml version="1.0" encoding="UTF-8"?>
<svg width="752pt" height="752pt" version="1.1" viewBox="0 0 752 752" xmlns="http://www.w3.org/2000/svg">
 <defs>
  <clipPath id="a">
   <path d="m139.21 440h473.58v172.79h-473.58z"/>
  </clipPath>
 </defs>
 <path d="m596.32 457.33-95.852-86.262h-248.95l-95.848 86.262-13.203-14.66 101.48-91.332h264.1l101.48 91.332z"/>
 <g clip-path="url(#a)">
  <path d="m583.19 612.79h-414.38c-16.324 0-29.598-13.273-29.598-29.598v-143.06h157.86v9.8672c0 24.484 19.914 44.398 44.398 44.398h69.062c24.484 0 44.398-19.914 44.398-44.398v-9.8672h157.86v143.06c0.003907 16.32-13.273 29.598-29.598 29.598zm-424.25-152.93v123.33c0 5.4414 4.4258 9.8672 9.8672 9.8672h414.38c5.4414 0 9.8672-4.4258 9.8672-9.8672l-0.003906-123.33h-119.15c-4.7617 30.699-31.371 54.266-63.375 54.266h-69.066c-32.008 0-58.617-23.566-63.375-54.266z"/>
 </g>
 <path d="m280.73 217.79 34.531 54.266-16.648 10.594-34.531-54.266z"/>
 <path d="m476.21 217.77 16.648 10.594-34.527 54.266-16.648-10.594z"/>
 <path d="m366.14 208.27h19.734v64.129h-19.734z"/>
</svg>
