<svg xmlns="http://www.w3.org/2000/svg" 
width="30" height="30" viewBox="0 0 24 24"
                                        
                                    fill="none">
                                        <path
                                            d="M19.2143 7.58556H16.1746V5.26104C16.1746 4.17031 15.7413 3.12426 14.97 2.35299C14.1988 1.58173 13.1527 1.14844 12.062 1.14844C10.9712 1.14844 9.92519 1.58173 9.15393 2.35299C8.38267 3.12426 7.94937 4.17031 7.94937 5.26104V7.58556H4.90962C4.57766 7.58556 4.25929 7.71743 4.02456 7.95216C3.78983 8.1869 3.65796 8.50526 3.65796 8.83722V18.8505C3.65796 19.1825 3.78983 19.5009 4.02456 19.7356C4.25929 19.9703 4.57766 20.1022 4.90962 20.1022H19.2143C19.5463 20.1022 19.8647 19.9703 20.0994 19.7356C20.3341 19.5009 20.466 19.1825 20.466 18.8505V8.83722C20.466 8.50526 20.3341 8.1869 20.0994 7.95216C19.8647 7.71743 19.5463 7.58556 19.2143 7.58556ZM9.02223 5.26104C9.02223 4.45485 9.34249 3.68168 9.91255 3.11161C10.4826 2.54155 11.2558 2.22129 12.062 2.22129C12.8682 2.22129 13.6413 2.54155 14.2114 3.11161C14.7815 3.68168 15.1017 4.45485 15.1017 5.26104V7.58556H9.02223V5.26104ZM19.3931 18.8505C19.3931 18.8979 19.3743 18.9434 19.3408 18.977C19.3072 19.0105 19.2618 19.0293 19.2143 19.0293H4.90962C4.8622 19.0293 4.81672 19.0105 4.78318 18.977C4.74965 18.9434 4.73081 18.8979 4.73081 18.8505V8.83722C4.73081 8.7898 4.74965 8.74432 4.78318 8.71079C4.81672 8.67725 4.8622 8.65841 4.90962 8.65841H19.2143C19.2618 8.65841 19.3072 8.67725 19.3408 8.71079C19.3743 8.74432 19.3931 8.7898 19.3931 8.83722V18.8505ZM12.956 13.8439C12.956 14.0207 12.9036 14.1936 12.8054 14.3406C12.7071 14.4876 12.5675 14.6022 12.4041 14.6699C12.2408 14.7375 12.061 14.7552 11.8876 14.7207C11.7141 14.6862 11.5548 14.6011 11.4298 14.4761C11.3048 14.351 11.2196 14.1917 11.1851 14.0183C11.1506 13.8449 11.1683 13.6651 11.236 13.5017C11.3037 13.3384 11.4183 13.1987 11.5653 13.1005C11.7123 13.0023 11.8852 12.9498 12.062 12.9498C12.2991 12.9498 12.5265 13.044 12.6942 13.2117C12.8618 13.3794 12.956 13.6068 12.956 13.8439Z"
                                            fill="#6F7174" />
                                    </svg>