<svg xmlns="http://www.w3.org/2000/svg" width="30" height="30" viewBox="0 0 24 23"
                                        fill="none">
                                        <path
                                            d="M11.972 2.36353C10.1684 2.36353 8.40531 2.89836 6.90566 3.9004C5.406 4.90243 4.23716 6.32667 3.54695 7.99299C2.85673 9.65932 2.67614 11.4929 3.02801 13.2619C3.37988 15.0308 4.2484 16.6557 5.52376 17.9311C6.79911 19.2064 8.424 20.0749 10.193 20.4268C11.9619 20.7787 13.7955 20.5981 15.4618 19.9079C17.1282 19.2177 18.5524 18.0488 19.5544 16.5492C20.5565 15.0495 21.0913 13.2864 21.0913 11.4828C21.0885 9.06508 20.1268 6.74721 18.4172 5.03763C16.7076 3.32805 14.3897 2.36636 11.972 2.36353ZM6.91533 17.7411C7.43994 16.8687 8.18131 16.1469 9.06739 15.6459C9.95346 15.1448 10.9541 14.8814 11.972 14.8814C12.99 14.8814 13.9906 15.1448 14.8767 15.6459C15.7628 16.1469 16.5041 16.8687 17.0288 17.7411C15.5986 18.9008 13.8133 19.5337 11.972 19.5337C10.1308 19.5337 8.34547 18.9008 6.91533 17.7411ZM8.93229 10.7675C8.93229 10.1663 9.11057 9.57864 9.44458 9.07875C9.77859 8.57887 10.2533 8.18925 10.8088 7.95918C11.3642 7.72911 11.9754 7.66891 12.5651 7.7862C13.1547 7.90349 13.6964 8.193 14.1215 8.61812C14.5466 9.04323 14.8361 9.58487 14.9534 10.1745C15.0707 10.7642 15.0105 11.3754 14.7804 11.9308C14.5503 12.4863 14.1607 12.961 13.6608 13.295C13.161 13.629 12.5733 13.8073 11.972 13.8073C11.1659 13.8073 10.3927 13.487 9.82261 12.917C9.25255 12.3469 8.93229 11.5737 8.93229 10.7675ZM17.8289 16.9937C16.9861 15.6831 15.7263 14.6948 14.2528 14.1882C14.9875 13.6988 15.5453 12.9859 15.8436 12.1551C16.1419 11.3242 16.165 10.4194 15.9093 9.57437C15.6537 8.72938 15.1329 7.98908 14.424 7.46292C13.7151 6.93677 12.8558 6.65269 11.9729 6.65269C11.0901 6.65269 10.2307 6.93677 9.52185 7.46292C8.81296 7.98908 8.29219 8.72938 8.03654 9.57437C7.7809 10.4194 7.80394 11.3242 8.10227 12.1551C8.4006 12.9859 8.95837 13.6988 9.69312 14.1882C8.21962 14.6948 6.95979 15.6831 6.11694 16.9937C5.03947 15.8503 4.3203 14.4164 4.04816 12.8691C3.77603 11.3217 3.96284 9.72857 4.58554 8.28615C5.20824 6.84373 6.2396 5.61516 7.55236 4.75202C8.86512 3.88889 10.4018 3.42894 11.9729 3.42894C13.544 3.42894 15.0808 3.88889 16.3935 4.75202C17.7063 5.61516 18.7376 6.84373 19.3603 8.28615C19.983 9.72857 20.1698 11.3217 19.8977 12.8691C19.6256 14.4164 18.9064 15.8503 17.8289 16.9937Z"
                                            fill="#6F7174" />
                                    </svg>